<svg width="210" height="95" viewBox="0 0 210 95" fill="none" xmlns="http://www.w3.org/2000/svg">
<path fill-rule="evenodd" clip-rule="evenodd" d="M33.148 1.06929C30.9041 1.83296 25.8738 3.94735 21.9685 5.76769L14.8697 9.07799L17.9326 10.9752C19.6175 12.0194 21.8063 14.1338 22.7977 15.6747C23.789 17.2145 29.875 31.8916 36.3221 48.2892C42.7701 64.6869 49.1508 80.0269 50.5023 82.3771C55.5091 91.0872 64.3857 96.2375 71.7364 94.6977C76.064 93.7917 96.1598 87.9088 97.246 87.2293C97.7203 86.9332 96.2587 85.8474 93.9986 84.8167C91.462 83.6593 89.2385 81.6602 88.188 79.5894C87.2517 77.7452 81.0443 62.3959 74.3933 45.4797C67.1987 27.1807 60.9393 12.8371 58.9382 10.065C52.9226 1.73321 42.1928 -2.00931 33.148 1.06929ZM86.6948 2.09167C83.0485 3.47252 77.8091 5.64925 75.0512 6.93035L70.0361 9.25981L73.1704 10.6022C77.5602 12.4828 80.0815 17.3932 90.7562 44.8553C105.211 82.0446 105.083 81.7703 110.656 87.621C116.243 93.4873 122.091 95.8978 127.833 94.7019C133.612 93.4977 152.457 87.7467 153.347 86.9155C153.823 86.4708 152.848 85.8007 151.179 85.4276C149.512 85.0546 147.209 83.7216 146.062 82.4654C144.266 80.4986 129.57 44.9852 120.958 21.8017C117.419 12.2771 113.456 6.73398 107.751 3.3281C101.163 -0.605601 94.8074 -0.978609 86.6948 2.09167ZM142.791 2.09998C139.145 3.47563 133.935 5.63574 131.214 6.90022L126.266 9.19955L129.078 10.6853C133.879 13.2226 136.441 17.5864 142.124 32.9067C151.788 58.9588 161.115 80.9744 164.294 85.2375C166.211 87.8091 169.386 90.8295 171.35 91.9475C178.034 95.7575 180.64 95.716 195.105 91.5693C208.263 87.7966 212.72 85.8962 208.409 85.8962C205.132 85.8962 200.923 81.894 198.683 76.647C197.561 74.0193 191.404 58.6201 185.001 42.4271C178.597 26.2331 172.145 11.3648 170.664 9.38657C167.044 4.55101 160.717 0.954994 154.521 0.211062C150.575 -0.262727 147.922 0.164303 142.791 2.09998ZM4.40103 21.4848C1.71248 22.5883 0 25.591 0 29.2016C0 35.7442 9.10907 38.5651 13.1847 33.2859C16.063 29.559 15.8427 27.0664 12.3178 23.4756C9.18251 20.2816 8.03507 19.9938 4.40103 21.4848ZM11.406 53.2619C3.85231 57.1042 0.6803 62.2057 0.174411 71.3252C-0.286601 79.6331 1.89505 84.9487 7.79539 89.9037C14.6014 95.6193 27.0345 96.2448 33.5407 91.1983L35.9732 89.3125L28.3676 70.2009C22.4917 55.4345 20.3151 51.0229 18.7954 50.7964C17.7143 50.6343 14.3883 51.7439 11.406 53.2619Z" fill="black"/>
</svg>
